<mxfile host="Electron" agent="Mozilla/5.0 (Windows NT 10.0; Win64; x64) AppleWebKit/537.36 (KHTML, like Gecko) draw.io/24.7.17 Chrome/128.0.6613.36 Electron/32.0.1 Safari/537.36" version="24.7.17">
  <diagram name="Page-1" id="OuwLyHZl4ZLgl4tLMqOj">
    <mxGraphModel dx="1615" dy="2068" grid="1" gridSize="10" guides="1" tooltips="1" connect="1" arrows="1" fold="1" page="1" pageScale="1" pageWidth="850" pageHeight="1100" math="0" shadow="0">
      <root>
        <mxCell id="0" />
        <mxCell id="1" parent="0" />
        <mxCell id="YQZKm8GPlMYC01iBBEA0-1" value="" style="rounded=0;whiteSpace=wrap;html=1;" parent="1" vertex="1">
          <mxGeometry x="174.72" y="-330" width="890" height="2290" as="geometry" />
        </mxCell>
        <mxCell id="YQZKm8GPlMYC01iBBEA0-2" value="&lt;font size=&quot;1&quot; color=&quot;#c67171&quot;&gt;&lt;b style=&quot;font-size: 14px;&quot;&gt;Seller&lt;/b&gt;&lt;/font&gt;" style="shape=umlActor;verticalLabelPosition=bottom;verticalAlign=top;html=1;outlineConnect=0;fillColor=#6a00ff;fontColor=#ffffff;strokeColor=#3700CC;" parent="1" vertex="1">
          <mxGeometry x="70" y="-20" width="30" height="60" as="geometry" />
        </mxCell>
        <mxCell id="YQZKm8GPlMYC01iBBEA0-7" value="Sign Up" style="ellipse;whiteSpace=wrap;html=1;" parent="1" vertex="1">
          <mxGeometry x="304.28" y="-190" width="104" height="40" as="geometry" />
        </mxCell>
        <mxCell id="YQZKm8GPlMYC01iBBEA0-8" value="Manage users" style="ellipse;whiteSpace=wrap;html=1;" parent="1" vertex="1">
          <mxGeometry x="350" y="1750" width="119.07" height="40" as="geometry" />
        </mxCell>
        <mxCell id="YQZKm8GPlMYC01iBBEA0-10" value="Log In&amp;nbsp;" style="ellipse;whiteSpace=wrap;html=1;" parent="1" vertex="1">
          <mxGeometry x="308.00000000000006" y="-130" width="103" height="40" as="geometry" />
        </mxCell>
        <mxCell id="YQZKm8GPlMYC01iBBEA0-11" value="Manage farmer dashboard" style="ellipse;whiteSpace=wrap;html=1;" parent="1" vertex="1">
          <mxGeometry x="331.43" y="240" width="126" height="40" as="geometry" />
        </mxCell>
        <mxCell id="YQZKm8GPlMYC01iBBEA0-12" value="manage sellers" style="ellipse;whiteSpace=wrap;html=1;" parent="1" vertex="1">
          <mxGeometry x="341.29" y="1280" width="116.14" height="40" as="geometry" />
        </mxCell>
        <mxCell id="YQZKm8GPlMYC01iBBEA0-16" value="Manage products" style="ellipse;whiteSpace=wrap;html=1;" parent="1" vertex="1">
          <mxGeometry x="290.78" y="60" width="130" height="40" as="geometry" />
        </mxCell>
        <mxCell id="YQZKm8GPlMYC01iBBEA0-17" value="Manage profile" style="ellipse;whiteSpace=wrap;html=1;" parent="1" vertex="1">
          <mxGeometry x="530" y="870" width="140" height="50" as="geometry" />
        </mxCell>
        <mxCell id="YQZKm8GPlMYC01iBBEA0-18" value="Request prescription" style="ellipse;whiteSpace=wrap;html=1;" parent="1" vertex="1">
          <mxGeometry x="483.86" y="460" width="140" height="50" as="geometry" />
        </mxCell>
        <mxCell id="YQZKm8GPlMYC01iBBEA0-19" value="Access blogs" style="ellipse;whiteSpace=wrap;html=1;" parent="1" vertex="1">
          <mxGeometry x="550.67" y="630" width="130" height="40" as="geometry" />
        </mxCell>
        <mxCell id="YQZKm8GPlMYC01iBBEA0-20" value="Realtime chat&amp;nbsp;" style="ellipse;whiteSpace=wrap;html=1;" parent="1" vertex="1">
          <mxGeometry x="555.92" y="795" width="124.75" height="40" as="geometry" />
        </mxCell>
        <mxCell id="YQZKm8GPlMYC01iBBEA0-23" value="Access lingual&amp;nbsp;&lt;div&gt;assistance&lt;/div&gt;" style="ellipse;whiteSpace=wrap;html=1;" parent="1" vertex="1">
          <mxGeometry x="563.81" y="690" width="127.72" height="50" as="geometry" />
        </mxCell>
        <mxCell id="YQZKm8GPlMYC01iBBEA0-26" value="Access chatbot" style="ellipse;whiteSpace=wrap;html=1;" parent="1" vertex="1">
          <mxGeometry x="494.28" y="970" width="145.72" height="50" as="geometry" />
        </mxCell>
        <mxCell id="YQZKm8GPlMYC01iBBEA0-28" value="Search Products" style="ellipse;whiteSpace=wrap;html=1;" parent="1" vertex="1">
          <mxGeometry x="483.85999999999996" y="1050" width="140" height="40" as="geometry" />
        </mxCell>
        <mxCell id="YQZKm8GPlMYC01iBBEA0-29" value="Manage seller dashboard" style="ellipse;whiteSpace=wrap;html=1;rotation=0;" parent="1" vertex="1">
          <mxGeometry x="290.78" width="131" height="40" as="geometry" />
        </mxCell>
        <mxCell id="YQZKm8GPlMYC01iBBEA0-30" value="Manage blogs" style="ellipse;whiteSpace=wrap;html=1;" parent="1" vertex="1">
          <mxGeometry x="344.86" y="1480" width="120" height="40" as="geometry" />
        </mxCell>
        <mxCell id="YQZKm8GPlMYC01iBBEA0-33" value="&lt;font size=&quot;1&quot; color=&quot;#e17575&quot;&gt;&lt;b style=&quot;font-size: 14px;&quot;&gt;Farmer&lt;/b&gt;&lt;/font&gt;" style="shape=umlActor;verticalLabelPosition=bottom;verticalAlign=top;html=1;outlineConnect=0;fillColor=#6a00ff;fontColor=#ffffff;strokeColor=#3700CC;" parent="1" vertex="1">
          <mxGeometry x="60" y="545" width="30" height="60" as="geometry" />
        </mxCell>
        <mxCell id="YQZKm8GPlMYC01iBBEA0-34" value="&lt;font style=&quot;font-size: 14px;&quot; color=&quot;#ce6f6f&quot;&gt;&lt;b&gt;Buyer&lt;/b&gt;&lt;/font&gt;" style="shape=umlActor;verticalLabelPosition=bottom;verticalAlign=top;html=1;outlineConnect=0;fillColor=#6a00ff;fontColor=#ffffff;strokeColor=#3700CC;" parent="1" vertex="1">
          <mxGeometry x="70" y="1020" width="30" height="60" as="geometry" />
        </mxCell>
        <mxCell id="YQZKm8GPlMYC01iBBEA0-35" value="&lt;font color=&quot;#ff6666&quot;&gt;Admin&lt;/font&gt;" style="shape=umlActor;verticalLabelPosition=bottom;verticalAlign=top;html=1;outlineConnect=0;fillColor=#6a00ff;fontColor=#ffffff;strokeColor=#3700CC;" parent="1" vertex="1">
          <mxGeometry x="70" y="1680" width="30" height="60" as="geometry" />
        </mxCell>
        <mxCell id="YQZKm8GPlMYC01iBBEA0-48" value="Edit profile" style="ellipse;whiteSpace=wrap;html=1;" parent="1" vertex="1">
          <mxGeometry x="770" y="910" width="136" height="50" as="geometry" />
        </mxCell>
        <mxCell id="YQZKm8GPlMYC01iBBEA0-50" style="edgeStyle=orthogonalEdgeStyle;rounded=0;orthogonalLoop=1;jettySize=auto;html=1;exitX=0.5;exitY=1;exitDx=0;exitDy=0;" parent="1" source="YQZKm8GPlMYC01iBBEA0-16" target="YQZKm8GPlMYC01iBBEA0-16" edge="1">
          <mxGeometry relative="1" as="geometry" />
        </mxCell>
        <mxCell id="YQZKm8GPlMYC01iBBEA0-53" value="Manage Buyer Request" style="ellipse;whiteSpace=wrap;html=1;" parent="1" vertex="1">
          <mxGeometry x="297.72" y="-70" width="132.28" height="50" as="geometry" />
        </mxCell>
        <mxCell id="YQZKm8GPlMYC01iBBEA0-61" value="Authentication" style="ellipse;whiteSpace=wrap;html=1;" parent="1" vertex="1">
          <mxGeometry x="530" y="-200" width="104" height="40" as="geometry" />
        </mxCell>
        <mxCell id="YQZKm8GPlMYC01iBBEA0-62" value="Approve Buyer Request" style="ellipse;whiteSpace=wrap;html=1;" parent="1" vertex="1">
          <mxGeometry x="536" y="-90" width="104" height="40" as="geometry" />
        </mxCell>
        <mxCell id="YQZKm8GPlMYC01iBBEA0-63" value="Verification" style="ellipse;whiteSpace=wrap;html=1;" parent="1" vertex="1">
          <mxGeometry x="530" y="-140" width="104" height="40" as="geometry" />
        </mxCell>
        <mxCell id="YQZKm8GPlMYC01iBBEA0-64" value="Cancel Buyer Request" style="ellipse;whiteSpace=wrap;html=1;" parent="1" vertex="1">
          <mxGeometry x="542.37" y="-40" width="104" height="40" as="geometry" />
        </mxCell>
        <mxCell id="YQZKm8GPlMYC01iBBEA0-67" value="Add product" style="ellipse;whiteSpace=wrap;html=1;" parent="1" vertex="1">
          <mxGeometry x="573.6700000000001" y="20" width="112" height="40" as="geometry" />
        </mxCell>
        <mxCell id="YQZKm8GPlMYC01iBBEA0-68" value="Update product" style="ellipse;whiteSpace=wrap;html=1;" parent="1" vertex="1">
          <mxGeometry x="573.6700000000001" y="80" width="108" height="40" as="geometry" />
        </mxCell>
        <mxCell id="YQZKm8GPlMYC01iBBEA0-71" value="Delete product" style="ellipse;whiteSpace=wrap;html=1;" parent="1" vertex="1">
          <mxGeometry x="573.67" y="140" width="107" height="40" as="geometry" />
        </mxCell>
        <mxCell id="YQZKm8GPlMYC01iBBEA0-74" value="Manage sent request" style="ellipse;whiteSpace=wrap;html=1;" parent="1" vertex="1">
          <mxGeometry x="640" y="230" width="140.33" height="50" as="geometry" />
        </mxCell>
        <mxCell id="YQZKm8GPlMYC01iBBEA0-76" value="Manage prescriptive history" style="ellipse;whiteSpace=wrap;html=1;" parent="1" vertex="1">
          <mxGeometry x="634" y="370" width="142" height="50" as="geometry" />
        </mxCell>
        <mxCell id="YQZKm8GPlMYC01iBBEA0-99" value="Add blog" style="ellipse;whiteSpace=wrap;html=1;" parent="1" vertex="1">
          <mxGeometry x="593.67" y="1390" width="136" height="40" as="geometry" />
        </mxCell>
        <mxCell id="YQZKm8GPlMYC01iBBEA0-102" value="Update blog" style="ellipse;whiteSpace=wrap;html=1;" parent="1" vertex="1">
          <mxGeometry x="593.67" y="1470" width="136" height="40" as="geometry" />
        </mxCell>
        <mxCell id="YQZKm8GPlMYC01iBBEA0-103" value="Delete blog" style="ellipse;whiteSpace=wrap;html=1;" parent="1" vertex="1">
          <mxGeometry x="593.67" y="1540" width="136" height="40" as="geometry" />
        </mxCell>
        <mxCell id="YQZKm8GPlMYC01iBBEA0-104" value="Manage comments" style="ellipse;whiteSpace=wrap;html=1;" parent="1" vertex="1">
          <mxGeometry x="593.67" y="1610" width="136" height="40" as="geometry" />
        </mxCell>
        <mxCell id="YQZKm8GPlMYC01iBBEA0-105" value="Delete/ Hide comments" style="ellipse;whiteSpace=wrap;html=1;" parent="1" vertex="1">
          <mxGeometry x="880" y="1610" width="136" height="50" as="geometry" />
        </mxCell>
        <mxCell id="YQZKm8GPlMYC01iBBEA0-108" value="edit user" style="ellipse;whiteSpace=wrap;html=1;" parent="1" vertex="1">
          <mxGeometry x="704" y="1745" width="136" height="50" as="geometry" />
        </mxCell>
        <mxCell id="-5ydFw-NMP-RRtFNa_v6-4" value="" style="endArrow=none;html=1;rounded=0;exitX=1;exitY=0.3333333333333333;exitDx=0;exitDy=0;exitPerimeter=0;entryX=0;entryY=0.5;entryDx=0;entryDy=0;" parent="1" source="YQZKm8GPlMYC01iBBEA0-2" target="YQZKm8GPlMYC01iBBEA0-53" edge="1">
          <mxGeometry width="50" height="50" relative="1" as="geometry">
            <mxPoint x="210" y="90" as="sourcePoint" />
            <mxPoint x="260" y="40" as="targetPoint" />
          </mxGeometry>
        </mxCell>
        <mxCell id="-5ydFw-NMP-RRtFNa_v6-5" value="" style="endArrow=none;html=1;rounded=0;exitX=1;exitY=0.3333333333333333;exitDx=0;exitDy=0;exitPerimeter=0;entryX=0;entryY=0.5;entryDx=0;entryDy=0;" parent="1" source="YQZKm8GPlMYC01iBBEA0-2" target="YQZKm8GPlMYC01iBBEA0-29" edge="1">
          <mxGeometry width="50" height="50" relative="1" as="geometry">
            <mxPoint x="210" y="90" as="sourcePoint" />
            <mxPoint x="260" y="40" as="targetPoint" />
          </mxGeometry>
        </mxCell>
        <mxCell id="-5ydFw-NMP-RRtFNa_v6-6" value="" style="endArrow=none;html=1;rounded=0;exitX=1;exitY=0.3333333333333333;exitDx=0;exitDy=0;exitPerimeter=0;entryX=0;entryY=0.5;entryDx=0;entryDy=0;" parent="1" source="YQZKm8GPlMYC01iBBEA0-2" target="YQZKm8GPlMYC01iBBEA0-16" edge="1">
          <mxGeometry width="50" height="50" relative="1" as="geometry">
            <mxPoint x="210" y="90" as="sourcePoint" />
            <mxPoint x="260" y="40" as="targetPoint" />
          </mxGeometry>
        </mxCell>
        <mxCell id="-5ydFw-NMP-RRtFNa_v6-7" value="" style="endArrow=none;html=1;rounded=0;exitX=1;exitY=0.3333333333333333;exitDx=0;exitDy=0;exitPerimeter=0;entryX=0;entryY=0;entryDx=0;entryDy=0;" parent="1" source="YQZKm8GPlMYC01iBBEA0-2" target="YQZKm8GPlMYC01iBBEA0-17" edge="1">
          <mxGeometry width="50" height="50" relative="1" as="geometry">
            <mxPoint x="210" y="90" as="sourcePoint" />
            <mxPoint x="284.529999999997" y="150" as="targetPoint" />
          </mxGeometry>
        </mxCell>
        <mxCell id="-5ydFw-NMP-RRtFNa_v6-8" value="&amp;lt;&amp;lt;include&amp;gt;&amp;gt;" style="endArrow=open;endSize=12;dashed=1;html=1;rounded=0;exitX=1;exitY=0.5;exitDx=0;exitDy=0;entryX=0;entryY=0.5;entryDx=0;entryDy=0;" parent="1" source="YQZKm8GPlMYC01iBBEA0-7" target="YQZKm8GPlMYC01iBBEA0-61" edge="1">
          <mxGeometry x="-0.004" width="160" relative="1" as="geometry">
            <mxPoint x="150" y="70" as="sourcePoint" />
            <mxPoint x="310" y="70" as="targetPoint" />
            <mxPoint as="offset" />
          </mxGeometry>
        </mxCell>
        <mxCell id="-5ydFw-NMP-RRtFNa_v6-9" value="&amp;lt;&amp;lt;extends&amp;gt;&amp;gt;" style="endArrow=open;endSize=12;dashed=1;html=1;rounded=0;exitX=0;exitY=0.5;exitDx=0;exitDy=0;entryX=1;entryY=1;entryDx=0;entryDy=0;" parent="1" source="YQZKm8GPlMYC01iBBEA0-71" target="YQZKm8GPlMYC01iBBEA0-16" edge="1">
          <mxGeometry x="-0.004" width="160" relative="1" as="geometry">
            <mxPoint x="413.05999999999995" y="30" as="sourcePoint" />
            <mxPoint x="523" y="40" as="targetPoint" />
            <mxPoint as="offset" />
          </mxGeometry>
        </mxCell>
        <mxCell id="-5ydFw-NMP-RRtFNa_v6-10" value="&amp;lt;&amp;lt;extends&amp;gt;&amp;gt;" style="endArrow=open;endSize=12;dashed=1;html=1;rounded=0;entryX=0.938;entryY=0.269;entryDx=0;entryDy=0;entryPerimeter=0;" parent="1" target="YQZKm8GPlMYC01iBBEA0-53" edge="1">
          <mxGeometry x="-0.004" width="160" relative="1" as="geometry">
            <mxPoint x="540" y="-70" as="sourcePoint" />
            <mxPoint x="430" y="-40" as="targetPoint" />
            <mxPoint as="offset" />
          </mxGeometry>
        </mxCell>
        <mxCell id="-5ydFw-NMP-RRtFNa_v6-11" value="&amp;lt;&amp;lt;include&amp;gt;&amp;gt;" style="endArrow=open;endSize=12;dashed=1;html=1;rounded=0;entryX=0;entryY=0.5;entryDx=0;entryDy=0;" parent="1" target="YQZKm8GPlMYC01iBBEA0-63" edge="1">
          <mxGeometry x="-0.004" width="160" relative="1" as="geometry">
            <mxPoint x="400" y="-120" as="sourcePoint" />
            <mxPoint x="536" y="-130" as="targetPoint" />
            <mxPoint as="offset" />
          </mxGeometry>
        </mxCell>
        <mxCell id="-5ydFw-NMP-RRtFNa_v6-12" value="&amp;lt;&amp;lt;extends&amp;gt;&amp;gt;" style="endArrow=open;endSize=12;dashed=1;html=1;rounded=0;exitX=0;exitY=0;exitDx=0;exitDy=0;entryX=1;entryY=0.5;entryDx=0;entryDy=0;" parent="1" source="YQZKm8GPlMYC01iBBEA0-68" target="YQZKm8GPlMYC01iBBEA0-16" edge="1">
          <mxGeometry x="0.0002" width="160" relative="1" as="geometry">
            <mxPoint x="428" as="sourcePoint" />
            <mxPoint x="538" y="10" as="targetPoint" />
            <mxPoint as="offset" />
          </mxGeometry>
        </mxCell>
        <mxCell id="-5ydFw-NMP-RRtFNa_v6-13" value="&amp;lt;&amp;lt;extends&amp;gt;&amp;gt;" style="endArrow=open;endSize=12;dashed=1;html=1;rounded=0;entryX=1;entryY=0;entryDx=0;entryDy=0;exitX=0;exitY=0.5;exitDx=0;exitDy=0;" parent="1" source="YQZKm8GPlMYC01iBBEA0-67" target="YQZKm8GPlMYC01iBBEA0-16" edge="1">
          <mxGeometry x="-0.004" width="160" relative="1" as="geometry">
            <mxPoint x="537.9872241579556" y="60" as="sourcePoint" />
            <mxPoint x="530" y="359" as="targetPoint" />
            <mxPoint as="offset" />
          </mxGeometry>
        </mxCell>
        <mxCell id="-5ydFw-NMP-RRtFNa_v6-16" value="&amp;lt;&amp;lt;extends&amp;gt;&amp;gt;" style="endArrow=open;endSize=12;dashed=1;html=1;rounded=0;exitX=0;exitY=1;exitDx=0;exitDy=0;" parent="1" source="YQZKm8GPlMYC01iBBEA0-64" edge="1">
          <mxGeometry x="-0.004" width="160" relative="1" as="geometry">
            <mxPoint x="418" y="-10" as="sourcePoint" />
            <mxPoint x="410" y="-30" as="targetPoint" />
            <mxPoint as="offset" />
          </mxGeometry>
        </mxCell>
        <mxCell id="-5ydFw-NMP-RRtFNa_v6-19" value="&amp;lt;&amp;lt;include&amp;gt;&amp;gt;" style="endArrow=open;endSize=12;dashed=1;html=1;rounded=0;exitX=1;exitY=0;exitDx=0;exitDy=0;entryX=0.062;entryY=0.768;entryDx=0;entryDy=0;entryPerimeter=0;" parent="1" source="YQZKm8GPlMYC01iBBEA0-11" target="YQZKm8GPlMYC01iBBEA0-74" edge="1">
          <mxGeometry x="-0.004" width="160" relative="1" as="geometry">
            <mxPoint x="961.05" y="-24.92079197729376" as="sourcePoint" />
            <mxPoint x="730.9429809618644" y="544.9177596201079" as="targetPoint" />
            <mxPoint as="offset" />
          </mxGeometry>
        </mxCell>
        <mxCell id="-5ydFw-NMP-RRtFNa_v6-21" value="" style="endArrow=none;html=1;rounded=0;exitX=1;exitY=0.3333333333333333;exitDx=0;exitDy=0;exitPerimeter=0;entryX=0;entryY=0.5;entryDx=0;entryDy=0;fillColor=#60a917;strokeColor=#2D7600;" parent="1" source="YQZKm8GPlMYC01iBBEA0-33" target="YQZKm8GPlMYC01iBBEA0-20" edge="1">
          <mxGeometry width="50" height="50" relative="1" as="geometry">
            <mxPoint x="380" y="590" as="sourcePoint" />
            <mxPoint x="430" y="540" as="targetPoint" />
          </mxGeometry>
        </mxCell>
        <mxCell id="-5ydFw-NMP-RRtFNa_v6-22" value="" style="endArrow=none;html=1;rounded=0;exitX=1;exitY=0.3333333333333333;exitDx=0;exitDy=0;exitPerimeter=0;entryX=0;entryY=0.5;entryDx=0;entryDy=0;fillColor=#60a917;strokeColor=#2D7600;" parent="1" source="YQZKm8GPlMYC01iBBEA0-33" target="YQZKm8GPlMYC01iBBEA0-19" edge="1">
          <mxGeometry width="50" height="50" relative="1" as="geometry">
            <mxPoint x="380" y="590" as="sourcePoint" />
            <mxPoint x="430" y="540" as="targetPoint" />
          </mxGeometry>
        </mxCell>
        <mxCell id="-5ydFw-NMP-RRtFNa_v6-23" value="" style="endArrow=none;html=1;rounded=0;exitX=1;exitY=0.3333333333333333;exitDx=0;exitDy=0;exitPerimeter=0;entryX=0;entryY=0.5;entryDx=0;entryDy=0;fillColor=#60a917;strokeColor=#2D7600;" parent="1" source="YQZKm8GPlMYC01iBBEA0-33" target="YQZKm8GPlMYC01iBBEA0-23" edge="1">
          <mxGeometry width="50" height="50" relative="1" as="geometry">
            <mxPoint x="380" y="590" as="sourcePoint" />
            <mxPoint x="430" y="540" as="targetPoint" />
          </mxGeometry>
        </mxCell>
        <mxCell id="-5ydFw-NMP-RRtFNa_v6-25" value="" style="endArrow=none;html=1;rounded=0;exitX=1;exitY=0.3333333333333333;exitDx=0;exitDy=0;exitPerimeter=0;entryX=0;entryY=0.5;entryDx=0;entryDy=0;fillColor=#60a917;strokeColor=#2D7600;" parent="1" source="YQZKm8GPlMYC01iBBEA0-33" target="YQZKm8GPlMYC01iBBEA0-26" edge="1">
          <mxGeometry width="50" height="50" relative="1" as="geometry">
            <mxPoint x="380" y="590" as="sourcePoint" />
            <mxPoint x="430" y="540" as="targetPoint" />
          </mxGeometry>
        </mxCell>
        <mxCell id="-5ydFw-NMP-RRtFNa_v6-26" value="" style="endArrow=none;html=1;rounded=0;exitX=1;exitY=0.3333333333333333;exitDx=0;exitDy=0;exitPerimeter=0;entryX=0;entryY=0.5;entryDx=0;entryDy=0;fillColor=#60a917;strokeColor=#2D7600;" parent="1" source="YQZKm8GPlMYC01iBBEA0-33" target="YQZKm8GPlMYC01iBBEA0-18" edge="1">
          <mxGeometry width="50" height="50" relative="1" as="geometry">
            <mxPoint x="380" y="740" as="sourcePoint" />
            <mxPoint x="430" y="690" as="targetPoint" />
          </mxGeometry>
        </mxCell>
        <mxCell id="-5ydFw-NMP-RRtFNa_v6-30" value="" style="endArrow=none;html=1;rounded=0;exitX=1;exitY=0.3333333333333333;exitDx=0;exitDy=0;exitPerimeter=0;entryX=0;entryY=0.5;entryDx=0;entryDy=0;fillColor=#60a917;strokeColor=#2D7600;" parent="1" source="YQZKm8GPlMYC01iBBEA0-33" target="YQZKm8GPlMYC01iBBEA0-28" edge="1">
          <mxGeometry width="50" height="50" relative="1" as="geometry">
            <mxPoint x="380" y="860" as="sourcePoint" />
            <mxPoint x="430" y="810" as="targetPoint" />
          </mxGeometry>
        </mxCell>
        <mxCell id="-5ydFw-NMP-RRtFNa_v6-31" value="" style="endArrow=none;html=1;rounded=0;exitX=1;exitY=0.3333333333333333;exitDx=0;exitDy=0;exitPerimeter=0;entryX=0;entryY=0.5;entryDx=0;entryDy=0;fillColor=#60a917;strokeColor=#2D7600;" parent="1" source="YQZKm8GPlMYC01iBBEA0-33" target="YQZKm8GPlMYC01iBBEA0-17" edge="1">
          <mxGeometry width="50" height="50" relative="1" as="geometry">
            <mxPoint x="380" y="860" as="sourcePoint" />
            <mxPoint x="430" y="810" as="targetPoint" />
          </mxGeometry>
        </mxCell>
        <mxCell id="-5ydFw-NMP-RRtFNa_v6-40" value="" style="endArrow=none;html=1;rounded=0;fillColor=#60a917;strokeColor=#2D7600;entryX=1;entryY=0.3333333333333333;entryDx=0;entryDy=0;entryPerimeter=0;exitX=0;exitY=0.5;exitDx=0;exitDy=0;" parent="1" source="YQZKm8GPlMYC01iBBEA0-11" target="YQZKm8GPlMYC01iBBEA0-33" edge="1">
          <mxGeometry width="50" height="50" relative="1" as="geometry">
            <mxPoint x="240" y="630" as="sourcePoint" />
            <mxPoint x="290" y="580" as="targetPoint" />
          </mxGeometry>
        </mxCell>
        <mxCell id="-5ydFw-NMP-RRtFNa_v6-42" value="" style="endArrow=none;html=1;rounded=0;fillColor=#d80073;strokeColor=#A50040;exitX=1;exitY=0.3333333333333333;exitDx=0;exitDy=0;exitPerimeter=0;entryX=0;entryY=1;entryDx=0;entryDy=0;" parent="1" source="YQZKm8GPlMYC01iBBEA0-34" target="YQZKm8GPlMYC01iBBEA0-19" edge="1">
          <mxGeometry width="50" height="50" relative="1" as="geometry">
            <mxPoint x="240" y="1070" as="sourcePoint" />
            <mxPoint x="290" y="1020" as="targetPoint" />
          </mxGeometry>
        </mxCell>
        <mxCell id="-5ydFw-NMP-RRtFNa_v6-43" value="" style="endArrow=none;html=1;rounded=0;fillColor=#d80073;strokeColor=#A50040;exitX=1;exitY=0.3333333333333333;exitDx=0;exitDy=0;exitPerimeter=0;entryX=0;entryY=1;entryDx=0;entryDy=0;" parent="1" source="YQZKm8GPlMYC01iBBEA0-34" target="YQZKm8GPlMYC01iBBEA0-23" edge="1">
          <mxGeometry width="50" height="50" relative="1" as="geometry">
            <mxPoint x="240" y="1070" as="sourcePoint" />
            <mxPoint x="290" y="1020" as="targetPoint" />
          </mxGeometry>
        </mxCell>
        <mxCell id="-5ydFw-NMP-RRtFNa_v6-44" value="" style="endArrow=none;html=1;rounded=0;fillColor=#d80073;strokeColor=#A50040;exitX=1;exitY=0.3333333333333333;exitDx=0;exitDy=0;exitPerimeter=0;entryX=0;entryY=1;entryDx=0;entryDy=0;" parent="1" source="YQZKm8GPlMYC01iBBEA0-34" target="YQZKm8GPlMYC01iBBEA0-20" edge="1">
          <mxGeometry width="50" height="50" relative="1" as="geometry">
            <mxPoint x="240" y="1070" as="sourcePoint" />
            <mxPoint x="290" y="1020" as="targetPoint" />
          </mxGeometry>
        </mxCell>
        <mxCell id="-5ydFw-NMP-RRtFNa_v6-46" value="" style="endArrow=none;html=1;rounded=0;fillColor=#d80073;strokeColor=#A50040;exitX=1;exitY=0.3333333333333333;exitDx=0;exitDy=0;exitPerimeter=0;entryX=0;entryY=1;entryDx=0;entryDy=0;" parent="1" source="YQZKm8GPlMYC01iBBEA0-34" target="YQZKm8GPlMYC01iBBEA0-26" edge="1">
          <mxGeometry width="50" height="50" relative="1" as="geometry">
            <mxPoint x="240" y="1070" as="sourcePoint" />
            <mxPoint x="290" y="1020" as="targetPoint" />
          </mxGeometry>
        </mxCell>
        <mxCell id="-5ydFw-NMP-RRtFNa_v6-48" value="" style="endArrow=none;html=1;rounded=0;fillColor=#d80073;strokeColor=#A50040;exitX=1;exitY=0.3333333333333333;exitDx=0;exitDy=0;exitPerimeter=0;entryX=0;entryY=0.5;entryDx=0;entryDy=0;" parent="1" source="YQZKm8GPlMYC01iBBEA0-34" target="YQZKm8GPlMYC01iBBEA0-28" edge="1">
          <mxGeometry width="50" height="50" relative="1" as="geometry">
            <mxPoint x="240" y="1070" as="sourcePoint" />
            <mxPoint x="420" y="980" as="targetPoint" />
          </mxGeometry>
        </mxCell>
        <mxCell id="-5ydFw-NMP-RRtFNa_v6-49" value="" style="endArrow=none;html=1;rounded=0;fillColor=#d80073;strokeColor=#A50040;exitX=1;exitY=0.3333333333333333;exitDx=0;exitDy=0;exitPerimeter=0;entryX=0;entryY=1;entryDx=0;entryDy=0;" parent="1" source="YQZKm8GPlMYC01iBBEA0-34" target="YQZKm8GPlMYC01iBBEA0-17" edge="1">
          <mxGeometry width="50" height="50" relative="1" as="geometry">
            <mxPoint x="240" y="1070" as="sourcePoint" />
            <mxPoint x="290" y="1020" as="targetPoint" />
          </mxGeometry>
        </mxCell>
        <mxCell id="-5ydFw-NMP-RRtFNa_v6-59" value="&amp;lt;&amp;lt;extends&amp;gt;&amp;gt;" style="endArrow=open;endSize=12;dashed=1;html=1;rounded=0;exitX=0;exitY=0.5;exitDx=0;exitDy=0;entryX=1;entryY=1;entryDx=0;entryDy=0;" parent="1" source="YQZKm8GPlMYC01iBBEA0-48" target="YQZKm8GPlMYC01iBBEA0-17" edge="1">
          <mxGeometry x="-0.004" width="160" relative="1" as="geometry">
            <mxPoint x="709.86" y="1063" as="sourcePoint" />
            <mxPoint x="550.86" y="1047" as="targetPoint" />
            <mxPoint as="offset" />
          </mxGeometry>
        </mxCell>
        <mxCell id="-5ydFw-NMP-RRtFNa_v6-62" value="&amp;lt;&amp;lt;extends&amp;gt;&amp;gt;" style="endArrow=open;endSize=12;dashed=1;html=1;rounded=0;exitX=0;exitY=0.5;exitDx=0;exitDy=0;entryX=1;entryY=0;entryDx=0;entryDy=0;" parent="1" source="YQZKm8GPlMYC01iBBEA0-99" target="YQZKm8GPlMYC01iBBEA0-30" edge="1">
          <mxGeometry x="-0.004" width="160" relative="1" as="geometry">
            <mxPoint x="491.28" y="1446" as="sourcePoint" />
            <mxPoint x="332.28" y="1430" as="targetPoint" />
            <mxPoint as="offset" />
          </mxGeometry>
        </mxCell>
        <mxCell id="-5ydFw-NMP-RRtFNa_v6-66" value="&amp;lt;&amp;lt;extends&amp;gt;&amp;gt;" style="endArrow=open;endSize=12;dashed=1;html=1;rounded=0;exitX=0;exitY=0.5;exitDx=0;exitDy=0;entryX=1;entryY=0.5;entryDx=0;entryDy=0;" parent="1" source="YQZKm8GPlMYC01iBBEA0-102" target="YQZKm8GPlMYC01iBBEA0-30" edge="1">
          <mxGeometry x="-0.004" width="160" relative="1" as="geometry">
            <mxPoint x="569.22" y="1708" as="sourcePoint" />
            <mxPoint x="410.22" y="1692" as="targetPoint" />
            <mxPoint as="offset" />
          </mxGeometry>
        </mxCell>
        <mxCell id="-5ydFw-NMP-RRtFNa_v6-67" value="&amp;lt;&amp;lt;extends&amp;gt;&amp;gt;" style="endArrow=open;endSize=12;dashed=1;html=1;rounded=0;exitX=0;exitY=0.5;exitDx=0;exitDy=0;entryX=1;entryY=1;entryDx=0;entryDy=0;" parent="1" source="YQZKm8GPlMYC01iBBEA0-103" target="YQZKm8GPlMYC01iBBEA0-30" edge="1">
          <mxGeometry x="-0.004" width="160" relative="1" as="geometry">
            <mxPoint x="562" y="1710" as="sourcePoint" />
            <mxPoint x="462" y="1690" as="targetPoint" />
            <mxPoint as="offset" />
          </mxGeometry>
        </mxCell>
        <mxCell id="-5ydFw-NMP-RRtFNa_v6-68" value="&amp;lt;&amp;lt;include&amp;gt;&amp;gt;" style="endArrow=open;endSize=12;dashed=1;html=1;rounded=0;exitX=0.5;exitY=1;exitDx=0;exitDy=0;entryX=0;entryY=0.5;entryDx=0;entryDy=0;" parent="1" source="YQZKm8GPlMYC01iBBEA0-30" target="YQZKm8GPlMYC01iBBEA0-104" edge="1">
          <mxGeometry x="-0.004" width="160" relative="1" as="geometry">
            <mxPoint x="572" y="1720" as="sourcePoint" />
            <mxPoint x="472" y="1700" as="targetPoint" />
            <mxPoint as="offset" />
          </mxGeometry>
        </mxCell>
        <mxCell id="-5ydFw-NMP-RRtFNa_v6-69" value="&amp;lt;&amp;lt;extends&amp;gt;&amp;gt;" style="endArrow=open;endSize=12;dashed=1;html=1;rounded=0;exitX=0;exitY=0.5;exitDx=0;exitDy=0;entryX=1;entryY=0.5;entryDx=0;entryDy=0;" parent="1" source="YQZKm8GPlMYC01iBBEA0-105" target="YQZKm8GPlMYC01iBBEA0-104" edge="1">
          <mxGeometry x="-0.004" width="160" relative="1" as="geometry">
            <mxPoint x="582" y="1730" as="sourcePoint" />
            <mxPoint x="482" y="1710" as="targetPoint" />
            <mxPoint as="offset" />
          </mxGeometry>
        </mxCell>
        <mxCell id="-5ydFw-NMP-RRtFNa_v6-71" value="&amp;lt;&amp;lt;extends&amp;gt;&amp;gt;" style="endArrow=open;endSize=12;dashed=1;html=1;rounded=0;exitX=0;exitY=0.5;exitDx=0;exitDy=0;entryX=1;entryY=0.5;entryDx=0;entryDy=0;" parent="1" source="YQZKm8GPlMYC01iBBEA0-108" target="YQZKm8GPlMYC01iBBEA0-8" edge="1">
          <mxGeometry x="-0.004" width="160" relative="1" as="geometry">
            <mxPoint x="602" y="1750" as="sourcePoint" />
            <mxPoint x="440" y="1920" as="targetPoint" />
            <mxPoint as="offset" />
          </mxGeometry>
        </mxCell>
        <mxCell id="-5ydFw-NMP-RRtFNa_v6-73" value="" style="endArrow=none;html=1;rounded=0;entryX=1;entryY=0.3333333333333333;entryDx=0;entryDy=0;entryPerimeter=0;exitX=0;exitY=0.5;exitDx=0;exitDy=0;fillColor=#1ba1e2;strokeColor=#006EAF;" parent="1" source="YQZKm8GPlMYC01iBBEA0-12" target="YQZKm8GPlMYC01iBBEA0-35" edge="1">
          <mxGeometry width="50" height="50" relative="1" as="geometry">
            <mxPoint x="240" y="1970" as="sourcePoint" />
            <mxPoint x="290" y="1920" as="targetPoint" />
          </mxGeometry>
        </mxCell>
        <mxCell id="-5ydFw-NMP-RRtFNa_v6-74" value="" style="endArrow=none;html=1;rounded=0;entryX=1;entryY=0.3333333333333333;entryDx=0;entryDy=0;entryPerimeter=0;exitX=0;exitY=0.5;exitDx=0;exitDy=0;fillColor=#1ba1e2;strokeColor=#006EAF;" parent="1" source="YQZKm8GPlMYC01iBBEA0-30" target="YQZKm8GPlMYC01iBBEA0-35" edge="1">
          <mxGeometry width="50" height="50" relative="1" as="geometry">
            <mxPoint x="240" y="1970" as="sourcePoint" />
            <mxPoint x="290" y="1920" as="targetPoint" />
          </mxGeometry>
        </mxCell>
        <mxCell id="-5ydFw-NMP-RRtFNa_v6-75" value="" style="endArrow=none;html=1;rounded=0;exitX=1;exitY=0.3333333333333333;exitDx=0;exitDy=0;exitPerimeter=0;entryX=0;entryY=0.5;entryDx=0;entryDy=0;fillColor=#1ba1e2;strokeColor=#006EAF;" parent="1" source="YQZKm8GPlMYC01iBBEA0-35" target="YQZKm8GPlMYC01iBBEA0-8" edge="1">
          <mxGeometry width="50" height="50" relative="1" as="geometry">
            <mxPoint x="240" y="1970" as="sourcePoint" />
            <mxPoint x="290" y="1920" as="targetPoint" />
          </mxGeometry>
        </mxCell>
        <mxCell id="QUnTcXjHe82o37YH5sB1-1" value="&lt;font size=&quot;1&quot; style=&quot;&quot;&gt;&lt;b style=&quot;font-size: 25px;&quot;&gt;AgriConnect Pakistan&lt;/b&gt;&lt;/font&gt;" style="text;html=1;align=center;verticalAlign=middle;whiteSpace=wrap;rounded=0;" parent="1" vertex="1">
          <mxGeometry x="434.46999999999997" y="-260" width="310" height="30" as="geometry" />
        </mxCell>
        <mxCell id="2P0y6JnKnrexdzhI6Xuh-1" value="edit/delete sellers" style="ellipse;whiteSpace=wrap;html=1;" parent="1" vertex="1">
          <mxGeometry x="700" y="1280" width="136" height="50" as="geometry" />
        </mxCell>
        <mxCell id="2P0y6JnKnrexdzhI6Xuh-2" value="&amp;lt;&amp;lt;extends&amp;gt;&amp;gt;" style="endArrow=open;endSize=12;dashed=1;html=1;rounded=0;exitX=0;exitY=0.5;exitDx=0;exitDy=0;entryX=1;entryY=0.5;entryDx=0;entryDy=0;" parent="1" source="2P0y6JnKnrexdzhI6Xuh-1" target="YQZKm8GPlMYC01iBBEA0-12" edge="1">
          <mxGeometry x="-0.004" width="160" relative="1" as="geometry">
            <mxPoint x="650" y="1490" as="sourcePoint" />
            <mxPoint x="450" y="1540" as="targetPoint" />
            <mxPoint as="offset" />
          </mxGeometry>
        </mxCell>
        <mxCell id="2P0y6JnKnrexdzhI6Xuh-4" value="&lt;font color=&quot;#ff6666&quot;&gt;System&lt;/font&gt;&lt;div&gt;&lt;br&gt;&lt;/div&gt;" style="shape=umlActor;verticalLabelPosition=bottom;verticalAlign=top;html=1;outlineConnect=0;fillColor=#6a00ff;fontColor=#ffffff;strokeColor=#3700CC;" parent="1" vertex="1">
          <mxGeometry x="1230" y="100" width="30" height="60" as="geometry" />
        </mxCell>
        <mxCell id="2P0y6JnKnrexdzhI6Xuh-12" value="Provide chatbot assistance" style="ellipse;whiteSpace=wrap;html=1;" parent="1" vertex="1">
          <mxGeometry x="840" y="180" width="140" height="50" as="geometry" />
        </mxCell>
        <mxCell id="2P0y6JnKnrexdzhI6Xuh-15" value="Provide prescriptive analysis" style="ellipse;whiteSpace=wrap;html=1;" parent="1" vertex="1">
          <mxGeometry x="836" y="100" width="140" height="50" as="geometry" />
        </mxCell>
        <mxCell id="2P0y6JnKnrexdzhI6Xuh-18" value="" style="endArrow=none;html=1;rounded=0;exitX=1;exitY=0.5;exitDx=0;exitDy=0;fillColor=#1ba1e2;strokeColor=#9933FF;entryX=0.5;entryY=0.5;entryDx=0;entryDy=0;entryPerimeter=0;" parent="1" source="2P0y6JnKnrexdzhI6Xuh-12" target="2P0y6JnKnrexdzhI6Xuh-4" edge="1">
          <mxGeometry width="50" height="50" relative="1" as="geometry">
            <mxPoint x="910" y="310" as="sourcePoint" />
            <mxPoint x="1172" y="540" as="targetPoint" />
          </mxGeometry>
        </mxCell>
        <mxCell id="2P0y6JnKnrexdzhI6Xuh-20" value="" style="endArrow=none;html=1;rounded=0;exitX=1;exitY=0.5;exitDx=0;exitDy=0;fillColor=#1ba1e2;strokeColor=#9933FF;entryX=0.5;entryY=0.5;entryDx=0;entryDy=0;entryPerimeter=0;" parent="1" source="2P0y6JnKnrexdzhI6Xuh-15" target="2P0y6JnKnrexdzhI6Xuh-4" edge="1">
          <mxGeometry width="50" height="50" relative="1" as="geometry">
            <mxPoint x="920" y="320" as="sourcePoint" />
            <mxPoint x="1255" y="140" as="targetPoint" />
          </mxGeometry>
        </mxCell>
        <mxCell id="0qucM4lyokM2YhRJVSj--1" value="Track purchases" style="ellipse;whiteSpace=wrap;html=1;" parent="1" vertex="1">
          <mxGeometry x="640" y="300" width="140.33" height="50" as="geometry" />
        </mxCell>
        <mxCell id="0qucM4lyokM2YhRJVSj--10" value="&amp;lt;&amp;lt;include&amp;gt;&amp;gt;" style="endArrow=open;endSize=12;dashed=1;html=1;rounded=0;entryX=0;entryY=0.5;entryDx=0;entryDy=0;exitX=1;exitY=0.5;exitDx=0;exitDy=0;" parent="1" source="YQZKm8GPlMYC01iBBEA0-11" target="0qucM4lyokM2YhRJVSj--1" edge="1">
          <mxGeometry x="-0.004" width="160" relative="1" as="geometry">
            <mxPoint x="560" y="510" as="sourcePoint" />
            <mxPoint x="758" y="418" as="targetPoint" />
            <mxPoint as="offset" />
          </mxGeometry>
        </mxCell>
        <mxCell id="0qucM4lyokM2YhRJVSj--12" value="&amp;lt;&amp;lt;include&amp;gt;&amp;gt;" style="endArrow=open;endSize=12;dashed=1;html=1;rounded=0;exitX=0.766;exitY=0.924;exitDx=0;exitDy=0;exitPerimeter=0;entryX=0;entryY=0.5;entryDx=0;entryDy=0;" parent="1" source="YQZKm8GPlMYC01iBBEA0-11" target="YQZKm8GPlMYC01iBBEA0-76" edge="1">
          <mxGeometry x="-0.004" width="160" relative="1" as="geometry">
            <mxPoint x="548" y="533" as="sourcePoint" />
            <mxPoint x="778" y="438" as="targetPoint" />
            <mxPoint as="offset" />
          </mxGeometry>
        </mxCell>
        <mxCell id="1xzIQxlptCmwNoNpM6yg-5" style="edgeStyle=orthogonalEdgeStyle;rounded=0;orthogonalLoop=1;jettySize=auto;html=1;exitX=0.5;exitY=1;exitDx=0;exitDy=0;" parent="1" edge="1">
          <mxGeometry relative="1" as="geometry">
            <mxPoint x="85" y="1780" as="sourcePoint" />
            <mxPoint x="85" y="1780" as="targetPoint" />
          </mxGeometry>
        </mxCell>
        <mxCell id="1xzIQxlptCmwNoNpM6yg-14" value="" style="endArrow=none;html=1;rounded=0;" parent="1" edge="1">
          <mxGeometry width="50" height="50" relative="1" as="geometry">
            <mxPoint x="30" y="1068" as="sourcePoint" />
            <mxPoint x="80" y="1068" as="targetPoint" />
          </mxGeometry>
        </mxCell>
        <mxCell id="1xzIQxlptCmwNoNpM6yg-15" value="" style="endArrow=none;html=1;rounded=0;" parent="1" edge="1">
          <mxGeometry width="50" height="50" relative="1" as="geometry">
            <mxPoint x="30" y="1070" as="sourcePoint" />
            <mxPoint x="30" y="580" as="targetPoint" />
          </mxGeometry>
        </mxCell>
        <mxCell id="1xzIQxlptCmwNoNpM6yg-16" value="" style="endArrow=none;html=1;rounded=0;" parent="1" edge="1">
          <mxGeometry width="50" height="50" relative="1" as="geometry">
            <mxPoint x="75" y="582" as="sourcePoint" />
            <mxPoint x="30" y="582" as="targetPoint" />
          </mxGeometry>
        </mxCell>
        <mxCell id="1xzIQxlptCmwNoNpM6yg-17" value="" style="endArrow=none;html=1;rounded=0;" parent="1" edge="1">
          <mxGeometry width="50" height="50" relative="1" as="geometry">
            <mxPoint x="30" y="585" as="sourcePoint" />
            <mxPoint x="30" y="-180" as="targetPoint" />
          </mxGeometry>
        </mxCell>
        <mxCell id="1xzIQxlptCmwNoNpM6yg-19" value="" style="endArrow=none;html=1;rounded=0;" parent="1" edge="1">
          <mxGeometry width="50" height="50" relative="1" as="geometry">
            <mxPoint x="28" y="-180.91" as="sourcePoint" />
            <mxPoint x="308" y="-180.91" as="targetPoint" />
          </mxGeometry>
        </mxCell>
        <mxCell id="1xzIQxlptCmwNoNpM6yg-21" value="" style="endArrow=none;html=1;rounded=0;" parent="1" edge="1">
          <mxGeometry width="50" height="50" relative="1" as="geometry">
            <mxPoint x="28" y="-100" as="sourcePoint" />
            <mxPoint x="320" y="-100" as="targetPoint" />
          </mxGeometry>
        </mxCell>
        <mxCell id="1xzIQxlptCmwNoNpM6yg-23" value="" style="endArrow=none;html=1;rounded=0;" parent="1" edge="1">
          <mxGeometry width="50" height="50" relative="1" as="geometry">
            <mxPoint x="30" y="20" as="sourcePoint" />
            <mxPoint x="90" y="20" as="targetPoint" />
          </mxGeometry>
        </mxCell>
        <mxCell id="WCtOUktacjQG3QCY39wT-1" value="" style="endArrow=none;html=1;rounded=0;exitX=1;exitY=0.3333333333333333;exitDx=0;exitDy=0;exitPerimeter=0;entryX=0;entryY=0.5;entryDx=0;entryDy=0;" parent="1" source="YQZKm8GPlMYC01iBBEA0-2" target="YQZKm8GPlMYC01iBBEA0-23" edge="1">
          <mxGeometry width="50" height="50" relative="1" as="geometry">
            <mxPoint x="110" y="10" as="sourcePoint" />
            <mxPoint x="318" y="350" as="targetPoint" />
          </mxGeometry>
        </mxCell>
        <mxCell id="WCtOUktacjQG3QCY39wT-2" value="" style="endArrow=none;html=1;rounded=0;exitX=1;exitY=0.3333333333333333;exitDx=0;exitDy=0;exitPerimeter=0;entryX=0;entryY=0;entryDx=0;entryDy=0;" parent="1" source="YQZKm8GPlMYC01iBBEA0-2" target="YQZKm8GPlMYC01iBBEA0-19" edge="1">
          <mxGeometry width="50" height="50" relative="1" as="geometry">
            <mxPoint x="120" y="20" as="sourcePoint" />
            <mxPoint x="435" y="705" as="targetPoint" />
          </mxGeometry>
        </mxCell>
        <mxCell id="WCtOUktacjQG3QCY39wT-3" value="" style="endArrow=none;html=1;rounded=0;exitX=1;exitY=0.3333333333333333;exitDx=0;exitDy=0;exitPerimeter=0;entryX=0;entryY=0;entryDx=0;entryDy=0;" parent="1" source="YQZKm8GPlMYC01iBBEA0-2" target="YQZKm8GPlMYC01iBBEA0-20" edge="1">
          <mxGeometry width="50" height="50" relative="1" as="geometry">
            <mxPoint x="120" y="20" as="sourcePoint" />
            <mxPoint x="440" y="750" as="targetPoint" />
          </mxGeometry>
        </mxCell>
        <mxCell id="6C1XaIJ6w93iKYDmmCLp-1" value="Get Farming Tips" style="ellipse;whiteSpace=wrap;html=1;" parent="1" vertex="1">
          <mxGeometry x="542.3699999999999" y="540" width="130" height="40" as="geometry" />
        </mxCell>
        <mxCell id="6C1XaIJ6w93iKYDmmCLp-2" value="" style="endArrow=none;html=1;rounded=0;entryX=0;entryY=0.5;entryDx=0;entryDy=0;fillColor=#60a917;strokeColor=#2D7600;" parent="1" target="6C1XaIJ6w93iKYDmmCLp-1" edge="1">
          <mxGeometry width="50" height="50" relative="1" as="geometry">
            <mxPoint x="100" y="570" as="sourcePoint" />
            <mxPoint x="450" y="690" as="targetPoint" />
          </mxGeometry>
        </mxCell>
        <mxCell id="6C1XaIJ6w93iKYDmmCLp-3" value="Download order summary" style="ellipse;whiteSpace=wrap;html=1;" parent="1" vertex="1">
          <mxGeometry x="292.54999999999995" y="130" width="126.47" height="40" as="geometry" />
        </mxCell>
        <mxCell id="6C1XaIJ6w93iKYDmmCLp-4" value="" style="endArrow=none;html=1;rounded=0;exitX=1;exitY=0.3333333333333333;exitDx=0;exitDy=0;exitPerimeter=0;entryX=0;entryY=0.5;entryDx=0;entryDy=0;" parent="1" source="YQZKm8GPlMYC01iBBEA0-2" target="6C1XaIJ6w93iKYDmmCLp-3" edge="1">
          <mxGeometry width="50" height="50" relative="1" as="geometry">
            <mxPoint x="110" y="10" as="sourcePoint" />
            <mxPoint x="295" y="160" as="targetPoint" />
          </mxGeometry>
        </mxCell>
        <mxCell id="6C1XaIJ6w93iKYDmmCLp-5" value="Manage farms details" style="ellipse;whiteSpace=wrap;html=1;" parent="1" vertex="1">
          <mxGeometry x="660" y="450" width="142" height="50" as="geometry" />
        </mxCell>
        <mxCell id="6C1XaIJ6w93iKYDmmCLp-6" value="&amp;lt;&amp;lt;include&amp;gt;&amp;gt;" style="endArrow=open;endSize=12;dashed=1;html=1;rounded=0;exitX=0.5;exitY=1;exitDx=0;exitDy=0;entryX=0;entryY=0.5;entryDx=0;entryDy=0;" parent="1" source="YQZKm8GPlMYC01iBBEA0-11" target="6C1XaIJ6w93iKYDmmCLp-5" edge="1">
          <mxGeometry x="-0.004" width="160" relative="1" as="geometry">
            <mxPoint x="469" y="407" as="sourcePoint" />
            <mxPoint x="735" y="545" as="targetPoint" />
            <mxPoint as="offset" />
          </mxGeometry>
        </mxCell>
      </root>
    </mxGraphModel>
  </diagram>
</mxfile>
